<svg xmlns="http://www.w3.org/2000/svg" xmlns:xlink="http://www.w3.org/1999/xlink" width="15" height="17" viewBox="0 0 15 17">
    <defs>
        <path id="a" d="M13.214 6.375V4.25a.711.711 0 0 0-.714-.708h-1.429v.708c0 .391-.32.708-.714.708a.711.711 0 0 1-.714-.708v-.708H5.357v.708c0 .391-.32.708-.714.708a.711.711 0 0 1-.714-.708v-.708H2.5a.711.711 0 0 0-.714.708v2.125h11.428zm0 1.417H1.786v6.375c0 .39.32.708.714.708h10a.711.711 0 0 0 .714-.708V7.792zM5.357 2.125h4.286v-.708c0-.392.32-.709.714-.709.395 0 .714.317.714.709v.708H12.5c1.183 0 2.143.951 2.143 2.125v9.917c0 1.173-.96 2.125-2.143 2.125h-10a2.134 2.134 0 0 1-2.143-2.125V4.25c0-1.174.96-2.125 2.143-2.125h1.429v-.708c0-.392.32-.709.714-.709.394 0 .714.317.714.709v.708z"/>
    </defs>
    <use fill="#537AFF" fill-rule="nonzero" xlink:href="#a"/>
</svg>
