<svg xmlns="http://www.w3.org/2000/svg" width="16" height="16" viewBox="0 0 16 16">
    <g fill="none" fill-rule="evenodd">
        <path d="M-2-2h20v20H-2z"/>
        <path fill="#7167FF" fill-rule="nonzero" d="M13.19 5.217l1.564-2.194c.423-.591.757-1.388.746-1.779a.778.778 0 0 0-.722-.743c-.387-.02-1.181.3-1.775.717l-2.198 1.54-7.71-1.341c-.65-.321-1.508-.167-1.917.346-.411.512-.295 1.308.26 1.776L7.915 5.96l-3.682 4.045-1.895-.357c-.69-.218-1.464-.194-1.729.054-.267.248-.029.825.53 1.288l1.728 1.1-.137.614c-.076.34.135.557.472.484l.608-.13 1.054 1.775c.447.574 1.013.825 1.263.563.25-.264.29-1.045.088-1.747l-.32-1.93 4.072-3.644 2.294 6.637c.452.57 1.236.705 1.75.299.515-.404.685-1.27.38-1.933L13.19 5.216z"/>
    </g>
</svg>
