<svg xmlns="http://www.w3.org/2000/svg" width="20" height="14" viewBox="0 0 20 14">
    <g fill="none" fill-rule="evenodd">
        <path d="M0-3h20v20H0z"/>
        <path fill="#7167FF" fill-rule="nonzero" d="M19.092 9.382h-.047c.03-.155.046-.314.046-.477 0-.976-.562-1.813-1.364-2.18v-4.01c0-1.316-1.017-2.382-2.272-2.382H4.545C3.29.333 2.273 1.4 2.273 2.714v4.01C1.471 7.092.91 7.93.91 8.905c0 .163.017.322.046.476H.908c-.5 0-.908.427-.908.952 0 .525.407.953.908.953h.455v1.428c0 .526.407.953.91.953.502 0 .909-.427.909-.953v-1.428h13.636v1.428c0 .526.407.953.909.953.503 0 .91-.427.91-.953v-1.428h.454c.502 0 .909-.427.909-.953s-.407-.951-.908-.951zM11.25 3.674h4.545c.502 0 .91.427.91.953v1.896h-6.364V4.627c0-.525.407-.953.909-.953zm-7.045 0H8.75c.502 0 .908.427.908.953v1.896H3.296V4.627c0-.525.407-.953.91-.953h-.001z"/>
    </g>
</svg>
