<svg xmlns="http://www.w3.org/2000/svg" width="50" height="50" viewBox="0 0 50 50">
    <g fill="none" fill-rule="evenodd">
        <path fill="#282729" fill-rule="nonzero" d="M19.566 15.122C20.796 12.12 23.892 10 27.5 10c1.897 0 3.7.588 5.168 1.648A6.5 6.5 0 0 1 40 22.19V30a5 5 0 0 1-5 5h-5.999a9.949 9.949 0 0 1-5.51 1.988 8.5 8.5 0 0 1-13.989-6.713A9.957 9.957 0 0 1 8 25c0-5.523 4.477-10 10-10 .53 0 1.053.041 1.566.122zm5.113 19.702A7.973 7.973 0 0 0 28.292 33a8 8 0 0 0-4.678-13.977L23.3 19l-.243-.199a7.984 7.984 0 0 0-4-1.73 8 8 0 0 0-7.71 12.376l.19.281-.023.34a6.5 6.5 0 0 0 10.905 5.2l.284-.263.386-.004a8.027 8.027 0 0 0 1.59-.176zM31 33H35a3 3 0 0 0 3-3v-8.728l.363-.3a4.5 4.5 0 1 0-5.258-7.282l-.624.393-.56-.48C30.728 12.58 29.165 12 27.5 12c-2.69 0-4.985 1.505-5.976 3.639a9.97 9.97 0 0 1 2.552 1.418A10.001 10.001 0 0 1 31.001 33zM19 32a5 5 0 1 1 0-10 5 5 0 0 1 0 10zm0-2a3 3 0 1 0 0-6 3 3 0 0 0 0 6z"/>
        <path d="M0 0h50v50H0z"/>
    </g>
</svg>
