<svg xmlns="http://www.w3.org/2000/svg" width="50" height="50" viewBox="0 0 50 50">
    <g fill="none" fill-rule="evenodd">
        <path fill="#282729" fill-rule="nonzero" d="M29.127 26.908A9.964 9.964 0 0 1 30 31c0 5.523-4.477 10-10 10s-10-4.477-10-10 4.477-10 10-10a9.985 9.985 0 0 1 8.006 4.007l2.269-.219c-4.1-5.95-12.154-7.843-18.52-4.167a1 1 0 1 1-1-1.732c7.595-4.385 17.29-1.836 21.755 5.683l5.876-.567a1 1 0 0 1 1.024 1.367l-5.203 12.974a1 1 0 1 1-1.857-.744l4.592-11.449-7.815.755zM20 39a8 8 0 1 0 0-16 8 8 0 0 0 0 16zm12-20a5 5 0 1 1 0-10 5 5 0 0 1 0 10zm0-2a3 3 0 1 0 0-6 3 3 0 0 0 0 6z"/>
        <path d="M0 0h50v50H0z"/>
    </g>
</svg>
