<svg xmlns="http://www.w3.org/2000/svg" width="50" height="50" viewBox="0 0 50 50">
    <g fill="none" fill-rule="evenodd">
        <path fill="#282729" fill-rule="nonzero" d="M29 22v-3a3 3 0 0 1 6 0v.17A3 3 0 0 1 39 22v6a3 3 0 0 1-4 2.83V31a3 3 0 0 1-6 0v-3h-8v3a3 3 0 0 1-6 0v-.17A3 3 0 0 1 11 28v-6a3 3 0 0 1 4-2.83V19a3 3 0 0 1 6 0v3h8zm0 2h-8v2h8v-2zm2-2v9a1 1 0 0 0 2 0V19a1 1 0 0 0-2 0v3zm-12 6v-9a1 1 0 0 0-2 0v12a1 1 0 0 0 2 0v-3zm16 0a1 1 0 0 0 2 0v-6a1 1 0 0 0-2 0v6zm-20-6a1 1 0 0 0-2 0v6a1 1 0 0 0 2 0v-6zm10 22C14.507 44 6 35.493 6 25S14.507 6 25 6s19 8.507 19 19-8.507 19-19 19zm0-2c9.389 0 17-7.611 17-17S34.389 8 25 8 8 15.611 8 25s7.611 17 17 17z"/>
        <path d="M0 0h50v50H0z"/>
    </g>
</svg>
