<svg xmlns="http://www.w3.org/2000/svg" width="50" height="50" viewBox="0 0 50 50">
    <g fill="none" fill-rule="evenodd">
        <path stroke="#282729" stroke-width="2" d="M16 22.5V22h3a1 1 0 0 0 1-1v-3a1 1 0 0 0-1-1h-6a1 1 0 0 0-1 1v3a1 1 0 0 0 1 1h3v.5zm0 3v.5H9.5h.5v13.5-.5h30v.5V26h1.5-3.613l-.217-.707a7.508 7.508 0 0 0-4.09-4.632l-1.466-.662 1.243-1.022a4.5 4.5 0 1 0-5.713 0L28.885 20l-1.467.662a7.508 7.508 0 0 0-4.09 4.632l-.216.707H16v-.5zm22.002.5H22.998l.576-1.384A7.506 7.506 0 0 1 30.5 20a7.506 7.506 0 0 1 6.926 4.616L38.002 26zM10 26h30v13H10V26zm20.5-6a4.5 4.5 0 1 1 0-9 4.5 4.5 0 0 1 0 9zm-18.27-6.113l-.102-.195.487-.692h1.08l-.624.887h-.842zM14.401 13h.113l.444.444-.444.443h-.113V13zm-1.52-2.935a.719.719 0 0 0-.127.414h-.873c0-.377.127-.724.34-1h.66v.586zm5.51-.315v.182l.127-.182h.873l-1-1v.795l-.393.205h.393zm0 .182V13h-.106l.106.106V14l.447-.447.447.447v-.894l.106-.106h-.106v-.226h.072v.113h1v-1.113h-1v.113h-2.336l1.37-1.955zm-1.37 1.955h-.137v-.12l-.038.12h-.962l1 1v-.805l.137-.195zm.264-1.113v.096l.31.595.69-.691h-1zm-1.972 2l3.972-5.667v5.667h-3.972z"/>
        <path d="M0 0h50v50H0z"/>
    </g>
</svg>
