<svg xmlns="http://www.w3.org/2000/svg" width="26" height="35" viewBox="0 0 26 35">
    <g fill="none" fill-rule="evenodd">
        <path fill="#FF5A5D" d="M10.783 26.111C4.659 25.047 0 19.65 0 13.151 0 5.888 5.82 0 13 0s13 5.888 13 13.15c0 6.5-4.66 11.897-10.783 12.961l-1.347 2.376a1 1 0 0 1-1.74 0l-1.347-2.376z"/>
        <circle cx="13" cy="34" r="1" fill="#FF5A5D"/>
        <path fill="#FFF" fill-rule="nonzero" d="M16.2 12.2h.8v-1.6a.8.8 0 0 0-.8-.8H9.8a.8.8 0 0 0-.8.8v1.6h.8V11c0-.22.18-.4.4-.4h2c.22 0 .4.18.4.4v1.2h.8V11c0-.22.18-.4.4-.4h2c.22 0 .4.18.4.4v1.2zm-2.4.8H8.2a.8.8 0 0 0-.8.8v2.4h.8v-.8h9.6v.8h.8v-2.4a.8.8 0 0 0-.8-.8h-4zm-5.6-.8v-1.6A1.6 1.6 0 0 1 9.8 9h6.4a1.6 1.6 0 0 1 1.6 1.6v1.6a1.6 1.6 0 0 1 1.6 1.6V17H17v-.8H9v.8H6.6V13.8a1.6 1.6 0 0 1 1.6-1.6zm2.4-.8v.8h1.2v-.8h-1.2zm3.6 0v.8h1.2v-.8h-1.2z"/>
        <path d="M3 3h20v20H3z"/>
    </g>
</svg>
