<svg xmlns="http://www.w3.org/2000/svg" xmlns:xlink="http://www.w3.org/1999/xlink" width="20" height="24" viewBox="0 0 20 24">
    <defs>
        <path id="a" d="M15.226 19.813a31.132 31.132 0 0 1-4.254 3.726c-.195.141-.337.24-.417.293a1 1 0 0 1-1.11 0c-.08-.054-.222-.152-.417-.293a31.132 31.132 0 0 1-4.254-3.726C1.802 16.676 0 13.372 0 10 0 4.477 4.477 0 10 0s10 4.477 10 10c0 3.372-1.802 6.676-4.774 9.813z"/>
    </defs>
    <g fill="none" fill-rule="evenodd">
        <use fill="#7167FF" fill-rule="nonzero" xlink:href="#a"/>
        <path d="M3 2h14v14H3z"/>
        <path fill="#FFF" fill-rule="nonzero" d="M16.364 10.667h-.033c.021-.108.033-.22.033-.333a1.67 1.67 0 0 0-.955-1.526V6c0-.922-.712-1.668-1.59-1.668H6.18c-.878 0-1.59.747-1.59 1.667v2.807a1.671 1.671 0 0 0-.954 1.527c0 .114.012.225.032.333h-.033c-.35 0-.636.299-.636.666 0 .368.285.667.636.667h.318v1c0 .368.285.667.637.667.351 0 .636-.299.636-.667v-1h9.546v1c0 .368.284.667.636.667.352 0 .637-.299.637-.667v-1h.318c.351 0 .636-.299.636-.667 0-.368-.285-.666-.636-.666zm-5.489-3.995h3.181c.352 0 .638.299.638.667v1.327h-4.455V7.34c0-.368.285-.667.636-.667zm-4.931 0h3.181c.351 0 .636.299.636.667v1.327H5.307V7.34c0-.368.285-.667.637-.667z"/>
    </g>
</svg>
