<svg xmlns="http://www.w3.org/2000/svg" xmlns:xlink="http://www.w3.org/1999/xlink" width="10" height="10" viewBox="0 0 10 10">
    <defs>
        <path id="a" d="M7.177 8.255A12.972 12.972 0 0 1 5.231 9.93a.417.417 0 0 1-.462 0 11.84 11.84 0 0 1-.614-.457c-.454-.361-.908-.77-1.332-1.218C1.584 6.948.833 5.572.833 4.167a4.167 4.167 0 0 1 8.334 0c0 1.405-.751 2.781-1.99 4.088zM5 5.833A1.667 1.667 0 1 0 5 2.5a1.667 1.667 0 0 0 0 3.333z"/>
    </defs>
    <use fill="#332B48" fill-rule="nonzero" xlink:href="#a"/>
</svg>
