<svg xmlns="http://www.w3.org/2000/svg" width="50" height="50" viewBox="0 0 50 50">
    <g fill="none" fill-rule="evenodd">
        <path fill="#282729" fill-rule="nonzero" d="M17 27.59V14a4 4 0 1 1 8 0 1 1 0 0 1-2 0 2 2 0 1 0-4 0v3h12v-3a4 4 0 1 1 8 0 1 1 0 0 1-2 0 2 2 0 1 0-4 0v13.59c.92 0 1.839.211 2.683.634l5.764 2.882a1 1 0 0 1-.894 1.788l-5.764-2.882a4 4 0 0 0-3.578 0l-3.528 1.764a6 6 0 0 1-5.366 0l-3.528-1.764a4 4 0 0 0-3.578 0l-5.764 2.882a1 1 0 0 1-.894-1.788l5.764-2.882A5.998 5.998 0 0 1 17 27.59zm2 .343c.232.082.46.18.683.29l3.528 1.765a4 4 0 0 0 3.578 0l3.528-1.764c.223-.112.45-.209.683-.29V25H19v2.933zM9.447 38.894a1 1 0 0 1-.894-1.788l5.764-2.882a6 6 0 0 1 5.366 0l3.528 1.764a4 4 0 0 0 3.578 0l3.528-1.764a6 6 0 0 1 5.366 0l5.764 2.882a1 1 0 0 1-.894 1.788l-5.764-2.882a4 4 0 0 0-3.578 0l-3.528 1.764a6 6 0 0 1-5.366 0l-3.528-1.764a4 4 0 0 0-3.578 0l-5.764 2.882zM31 23v-4H19v4h12z"/>
        <path d="M0 0h50v50H0z"/>
    </g>
</svg>
