<svg xmlns="http://www.w3.org/2000/svg" xmlns:xlink="http://www.w3.org/1999/xlink" width="14" height="12" viewBox="0 0 14 12">
    <defs>
        <path id="a" d="M7.975 11.748L4.123 9.822.768 11.739A.513.513 0 0 1 0 11.293V3.08c0-.184.099-.354.259-.446L3.852.581a.513.513 0 0 1 .493-.009l3.852 1.926L11.552.581a.513.513 0 0 1 .768.446V9.24a.513.513 0 0 1-.259.446l-3.593 2.053a.513.513 0 0 1-.493.009zM7.7 3.398l-3.08-1.54v7.065l3.08 1.54V3.397zm1.027-.02v7.03l2.566-1.466v-7.03L8.727 3.377zM3.593 1.91L1.027 3.378v7.03l2.566-1.466v-7.03z"/>
    </defs>
    <g fill="none" fill-rule="evenodd">
        <use fill="#000" fill-rule="nonzero" xlink:href="#a"/>
        <circle cx="11.75" cy="1.75" r="1.75" fill="#7167FF" stroke="#FFF"/>
    </g>
</svg>
